<svg width="512" height="512" viewBox="0 0 512 512" fill="none" xmlns="http://www.w3.org/2000/svg">
  <defs>
    <linearGradient id="gradServidor" x1="256" y1="50" x2="256" y2="462" gradientUnits="userSpaceOnUse">
      <stop stop-color="#880063"/> <stop offset="1" stop-color="#CA4D6E"/> </linearGradient>
  </defs>

  <g opacity="0.8" transform="translate(180, 80) rotate(5)">
    <rect x="0" y="0" width="300" height="360" rx="15" fill="#d0d0dc" stroke="#b3b3c7" stroke-width="8"/> <line x1="40" y1="60" x2="260" y2="60" stroke="#1e0117" stroke-width="12" stroke-linecap="round"/> <line x1="40" y1="110" x2="260" y2="110" stroke="#1e0117" stroke-width="12" stroke-linecap="round"/> <line x1="40" y1="160" x2="180" y2="160" stroke="#1e0117" stroke-width="12" stroke-linecap="round"/> </g>

  <rect x="64" y="64" width="288" height="384" rx="24" fill="url(#gradServidor)" stroke="#fff" stroke-width="12"/> <rect x="96" y="112" width="224" height="64" rx="8" fill="#ffffff" opacity="0.2"/> <rect x="96" y="224" width="224" height="64" rx="8" fill="#ffffff" opacity="0.2"/> <rect x="96" y="336" width="224" height="64" rx="8" fill="#ffffff" opacity="0.2"/> <circle cx="128" cy="144" r="16" fill="#2b537c"/> <circle cx="128" cy="256" r="16" fill="#006322"/> <circle cx="128" cy="368" r="16" fill="#006322"/> <g transform="translate(192, 128)">
    <line x1="0" y1="16" x2="120" y2="16" stroke="#fff" stroke-width="8" stroke-linecap="round"/> <line x1="0" y1="128" x2="120" y2="128" stroke="#fff" stroke-width="8" stroke-linecap="round"/> <line x1="0" y1="240" x2="120" y2="240" stroke="#fff" stroke-width="8" stroke-linecap="round"/> </g>

</svg>
